<svg width="40" height="40" viewBox="0 0 40 40" fill="none" xmlns="http://www.w3.org/2000/svg">
<path d="M20 39H19.9987C17.0664 39.0039 14.1733 38.326 11.548 37.0199C10.6251 36.5451 9.56065 36.4229 8.55395 36.6762L8.54685 36.678L8.53977 36.6799L4.08841 37.8697C3.81736 37.942 3.53207 37.9417 3.26117 37.8689C2.99025 37.7962 2.74324 37.6534 2.54489 37.4551C2.34654 37.2567 2.20382 37.0097 2.13104 36.7388L1.16821 36.9975L2.13104 36.7388C2.0583 36.468 2.058 36.1829 2.13016 35.9119C2.13019 35.9118 2.13022 35.9117 2.13025 35.9116L3.32003 31.4604C3.32005 31.4604 3.32006 31.4603 3.32008 31.4602C3.59707 30.4246 3.4311 29.3606 2.98084 28.4596C1.71429 25.9128 1 23.0413 1 20C1 9.50628 9.50628 1 20 1C30.4937 1 39 9.50628 39 20C39 30.4937 30.4937 39 20 39Z" fill="white" stroke="#B18AE7" stroke-width="2"/>
</svg>
