<svg width="16" height="16" viewBox="0 0 16 16" fill="none" xmlns="http://www.w3.org/2000/svg">
<path fill-rule="evenodd" clip-rule="evenodd" d="M7.99975 6.91364C7.13525 6.91364 6.4326 7.53659 6.4326 8.30233C6.4326 9.06749 7.13525 9.68987 7.99975 9.68987C8.86425 9.68987 9.56755 9.06749 9.56755 8.30233C9.56755 7.53659 8.86425 6.91364 7.99975 6.91364M7.99973 10.5535C6.59768 10.5535 5.45758 9.54366 5.45758 8.30236C5.45758 7.06048 6.59768 6.05005 7.99973 6.05005C9.40178 6.05005 10.5425 7.06048 10.5425 8.30236C10.5425 9.54366 9.40178 10.5535 7.99973 10.5535" fill="#7C7C7C"/>
<mask id="mask0_740_291" style="mask-type:luminance" maskUnits="userSpaceOnUse" x="1" y="3" width="14" height="10">
<path fill-rule="evenodd" clip-rule="evenodd" d="M1.50006 3.44995H14.5V12.7223H1.50006V3.44995Z" fill="white"/>
</mask>
<g mask="url(#mask0_740_291)">
<path fill-rule="evenodd" clip-rule="evenodd" d="M2.52045 8.08605C3.72945 10.4518 5.7659 11.8583 7.99995 11.8589C10.234 11.8583 12.2704 10.4518 13.4794 8.08605C12.2704 5.7209 10.234 4.31436 7.99995 4.31378C5.76655 4.31436 3.72945 5.7209 2.52045 8.08605V8.08605ZM8.0012 12.7225H7.9986H7.99795C5.30955 12.7207 2.89545 11.0517 1.53955 8.25644C1.4869 8.14762 1.4869 8.02442 1.53955 7.9156C2.89545 5.12094 5.3102 3.45187 7.99795 3.45014C7.99925 3.44956 7.99925 3.44956 7.9999 3.45014C8.0012 3.44956 8.0012 3.44956 8.00185 3.45014C10.6902 3.45187 13.1043 5.12094 14.4602 7.9156C14.5135 8.02442 14.5135 8.14762 14.4602 8.25644C13.105 11.0517 10.6902 12.7207 8.00185 12.7225H8.0012Z" fill="#7C7C7C"/>
</g>
</svg>
