<svg width="19" height="16" viewBox="0 0 19 16" fill="none" xmlns="http://www.w3.org/2000/svg">
<path d="M9.5 3.26296L8.5301 4.18418C8.65647 4.30963 8.80736 4.4093 8.97391 4.47734C9.14046 4.54539 9.31932 4.58044 9.5 4.58044C9.68068 4.58044 9.85954 4.54539 10.0261 4.47734C10.1926 4.4093 10.3435 4.30963 10.4699 4.18418L9.5 3.26472V3.26296ZM6.81105 11.8264C5.75971 10.9579 4.70295 9.94881 3.91943 8.90804C3.12143 7.84443 2.71429 6.88805 2.71429 6.09166H0C0 7.70203 0.787143 9.21043 1.7281 10.4622C2.68533 11.7367 3.91762 12.8953 5.054 13.8358L6.81286 11.8264H6.81105ZM2.71429 6.09166C2.71429 4.1455 3.61 3.12232 4.52924 2.78653C5.46657 2.44723 6.95762 2.62831 8.5301 4.18769L10.4699 2.3435C8.3781 0.269011 5.79952 -0.490465 3.57924 0.316478C1.34448 1.12869 0 3.33328 0 6.09166H2.71429ZM13.946 13.8376C15.0824 12.8988 16.3147 11.7385 17.2719 10.4657C18.2129 9.21219 19 7.70378 19 6.09341H16.2857C16.2857 6.88981 15.8786 7.84619 15.0806 8.9098C14.297 9.95232 13.2403 10.9597 12.189 11.8282L13.946 13.8376ZM19 6.09341C19 3.33328 17.6555 1.12869 15.4208 0.316478C13.2005 -0.490465 10.6219 0.267253 8.5301 2.3435L10.4699 4.18945C12.0424 2.62831 13.5352 2.44723 14.469 2.78653C15.3918 3.12056 16.2857 4.14726 16.2857 6.09341H19ZM5.054 13.8376C6.46543 15.0032 7.58733 16 9.5 16V13.3629C8.75086 13.3629 8.38352 13.1256 6.81105 11.8264L5.054 13.8376ZM12.189 11.8282C10.6165 13.1274 10.2491 13.3629 9.5 13.3629V16C11.4127 16 12.5364 15.0032 13.946 13.8376L12.1871 11.8282H12.189Z" fill="#B18AE7"/>
</svg>
