<svg width="20" height="24" viewBox="0 0 20 24" fill="none" xmlns="http://www.w3.org/2000/svg">
<g clip-path="url(#clip0_349_776)">
<path d="M5.95978 7.99427C5.83498 7.95556 5.90269 7.78065 5.92925 7.70036C5.97173 7.5656 6.02352 7.43657 6.06733 7.30323C6.16691 7.01076 6.15895 6.69679 6.16558 6.38998C6.23064 4.97208 5.64644 4.72835 5.51632 3.46815C5.45923 3.01225 5.56014 2.56207 5.69158 2.13197C5.82436 1.7119 5.98634 1.27607 6.12044 0.861735C6.15496 0.749908 6.18152 0.671056 6.21471 0.563531C6.24126 0.408694 6.26649 0.249556 6.33686 0.109056C6.42184 -0.0644188 6.6688 -0.0228423 6.69535 0.176438C6.7073 0.355648 6.67411 0.537724 6.66614 0.718367C6.65552 0.924817 6.65552 1.13127 6.68207 1.33628C6.8414 2.5506 7.58493 3.63876 7.49199 4.89609C7.43888 5.3434 7.26097 5.76347 7.09102 6.17063C6.86265 6.68389 6.57054 7.16273 6.23064 7.59857C6.19612 7.67742 6.1616 7.75771 6.12708 7.83656C6.10052 7.90394 6.06202 8 5.98767 8C5.97837 8 5.96908 8 5.95978 7.9957V7.99427ZM6.12708 4.11331C6.23463 4.42728 6.37802 4.72835 6.45636 5.0538C6.53868 5.38068 6.54664 5.72046 6.52938 6.05737C6.51345 6.36418 6.49088 6.67242 6.43379 6.97349C6.74979 6.36131 7.07508 5.54125 7.08969 4.83445C7.06844 4.09037 6.76307 3.41368 6.52806 2.72838C6.40059 2.34129 6.27977 1.94846 6.21338 1.54273C5.91995 2.49756 5.81241 3.13984 6.12575 4.11331H6.12708Z" fill="#6D489C"/>
<path d="M10.9792 5.92159C10.9416 5.74719 10.8663 5.59171 10.799 5.43083C10.7248 5.21993 10.6724 4.99822 10.6324 4.77515C10.5572 4.37497 10.4967 3.97074 10.5001 3.55976C10.5047 3.3813 10.4853 3.14741 10.629 3.03656C10.8092 2.91488 10.9587 3.12308 11.059 3.27855C11.1434 3.40023 11.2301 3.5219 11.2951 3.6598C11.5153 4.07214 11.5472 4.58858 11.4423 5.05229C11.3704 5.36053 11.3043 5.68094 11.1594 5.95539C11.1412 5.98513 11.1115 6 11.0807 6C11.0385 6 10.994 5.97161 10.9792 5.92294V5.92159ZM10.9655 5.0212C11.0533 5.20912 11.1047 5.41326 11.1412 5.62281C11.3088 4.87249 11.2986 4.20192 10.8104 3.62735C10.7545 4.09512 10.7876 4.59399 10.9655 5.0212Z" fill="#6D489C"/>
<path d="M15.0235 8.99404C14.9558 8.97318 14.92 8.89719 14.9266 8.8227C14.8537 8.69009 14.7886 8.55152 14.7329 8.40998C14.6201 8.09858 14.5113 7.77675 14.5007 7.43853C14.4954 7.18226 14.5193 6.91854 14.5936 6.67567C14.648 6.51923 14.7143 6.36874 14.7873 6.22273C14.8563 6.06479 14.9969 5.9307 15.1522 6.03946C15.2995 6.14972 15.326 6.45665 15.3751 6.63843C15.5171 7.31188 15.5874 7.89446 15.3114 8.54109C15.2743 8.64837 15.2384 8.75714 15.1986 8.86441C15.1801 8.93742 15.1257 9 15.0593 9C15.0474 9 15.0354 8.99851 15.0235 8.99404ZM14.985 8.5545C15.1827 7.72162 15.3844 7.46833 15.0381 6.60267C14.6958 7.20908 14.7117 7.91978 14.985 8.5545Z" fill="#6D489C"/>
<path d="M0.843875 10.9981C0.573248 10.9783 0.450452 10.7341 0.518407 10.5455C0.549404 10.4219 0.65074 10.322 0.724656 10.2145C0.975016 9.92025 1.496 9.90139 1.49958 10.3305C1.50792 10.5606 1.39228 10.8048 1.14192 10.934C1.06681 10.9745 0.9774 11 0.886793 11C0.872487 11 0.858181 11 0.843875 10.9981ZM0.810493 10.47C0.769959 10.5756 0.703196 10.7935 0.9011 10.818C1.17053 10.7878 1.24564 10.405 1.14788 10.2418C0.984553 10.2456 0.873679 10.3625 0.810493 10.47Z" fill="#6D489C"/>
<path d="M18.8671 12.9868C18.5917 12.8708 18.5137 12.4402 18.5436 12.109C18.5215 12.0891 18.5059 12.056 18.5059 12.0195C18.5007 11.8605 18.4903 11.6982 18.5215 11.5426C18.6267 10.9314 19.1659 10.794 19.414 11.3504C19.5128 11.5558 19.5128 11.8026 19.4816 12.0328C19.4361 12.4054 19.3075 13 18.9619 13C18.932 13 18.9009 12.995 18.8671 12.9868ZM18.8411 11.42C18.7839 11.4862 18.7463 11.5724 18.7632 11.6717C18.7904 11.9516 18.7463 12.4303 18.9502 12.6042C19.0983 12.5363 19.1542 11.8092 19.0996 11.6353C19.0763 11.531 19.0035 11.3769 18.9178 11.3769C18.8931 11.3769 18.8671 11.3902 18.8411 11.4183V11.42Z" fill="#6D489C"/>
<path d="M7.19933 23.9919C6.5569 23.9475 5.90904 23.7497 5.38911 23.3675C5.11282 23.163 4.86782 22.9221 4.64461 22.6624C4.53436 22.5291 4.41731 22.3959 4.34926 22.2344C3.2713 21.8213 2.73776 21.5817 1.9987 20.6599C1.87621 20.5119 1.75235 20.3571 1.67477 20.1809C1.59583 20.0019 1.53594 19.8162 1.47741 19.6291C1.32225 19.1662 1.25284 18.6817 1.2052 18.1986C1.1739 17.9052 1.16165 17.6105 1.14259 17.3172C1.12082 16.9848 1.09768 16.6443 0.927544 16.3482C0.449811 15.491 0.353175 14.4952 0.735634 13.5828C0.90985 13.1212 1.19159 12.7094 1.41344 12.2694C1.66524 11.7607 1.89662 11.2372 2.0164 10.6801C2.10486 10.1822 2.16883 9.66945 2.11303 9.1648C2.0722 8.78396 1.90751 8.43542 1.77413 8.08015C1.457 7.22428 1.7891 6.75462 2.36211 6.12886C2.42744 6.04946 2.5581 5.98083 2.62071 6.10329C2.64385 6.15577 2.62751 6.21499 2.62071 6.27016C2.60437 6.37647 2.59893 6.48413 2.60574 6.59044C2.64657 7.06548 2.9637 7.44632 3.25224 7.80428C3.73406 8.41793 4.0403 9.16884 4.0403 9.95205C4.04982 10.1458 4.04574 10.3423 4.03213 10.5361C4.00763 10.9142 3.88241 11.2735 3.78714 11.6382C3.62517 12.2761 3.46729 13.0728 3.79122 13.6824C3.85519 13.7685 3.94638 13.8318 4.04438 13.8829C4.09338 13.8856 4.14238 13.8789 4.19001 13.8627C4.43364 13.7214 4.49761 13.3486 4.56431 13.0956C4.68544 12.4739 4.57928 11.8293 4.74941 11.2157C4.91954 10.5428 5.26389 9.92513 5.6831 9.37204C6.12953 8.81088 6.67668 8.33449 7.1163 7.7666C7.56954 7.20005 7.87986 6.53796 8.11804 5.85837C8.2106 5.57308 8.30043 5.28509 8.33173 4.98635C8.36984 4.4521 8.30179 3.9165 8.30587 3.3809C8.30179 2.37431 8.59169 1.31253 9.37431 0.623527C9.59616 0.420323 9.84115 0.242688 10.1038 0.0933135C10.21 0.0206447 10.3978 -0.0708641 10.4727 0.0865849C10.5067 0.176748 10.4509 0.265565 10.4237 0.349C10.3856 0.448583 10.3461 0.548166 10.3094 0.649095C9.62746 2.6273 10.0739 3.06601 10.5162 4.92175C10.6469 5.76955 10.6115 6.65773 10.3284 7.47323C9.91601 8.69784 9.60977 10.0193 9.89559 11.3045C9.9827 11.6517 10.0739 12.0083 10.2685 12.3151C10.4523 12.5897 10.8116 12.7229 11.0865 12.4914C11.2798 12.3165 11.3914 12.0621 11.5112 11.8387C11.8705 11.0663 12.223 10.2844 12.4857 9.47432C12.5919 9.12174 12.6341 8.75032 12.6109 8.38294C12.5823 8.01152 12.5224 7.64279 12.5197 7.27003C12.5184 7.02915 12.5497 6.78961 12.5837 6.55142C12.6327 6.32668 12.6272 5.87183 12.9648 5.92835C13.1635 5.97949 13.12 6.20691 13.1526 6.36032C13.1744 6.45856 13.2016 6.55545 13.2343 6.651C13.4303 7.14084 13.8155 7.52975 14.0428 8.00479C14.3735 8.67227 14.5082 9.42183 14.5423 10.1593C14.5654 10.633 14.5273 11.1053 14.4837 11.5763C14.4565 11.9599 14.4715 12.3434 14.5218 12.7242C14.5858 13.0822 14.6076 13.7079 15.005 13.8506C15.4651 14.0054 16.1157 13.4886 16.2953 13.0916C16.5716 12.482 16.3375 11.797 16.1742 11.1861C15.838 9.88342 15.8081 8.73821 16.8778 7.76391C16.9854 7.66567 17.082 7.54859 17.214 7.48265C17.327 7.4369 17.4713 7.50015 17.4876 7.62664C17.5039 7.69662 17.4808 7.7666 17.4686 7.83523C17.3447 8.42331 17.3855 9.03561 17.5597 9.61023C17.7285 10.2118 17.998 10.7797 18.1736 11.3799C18.6608 12.8292 18.5697 14.4118 18.1178 15.8571C17.8959 16.5555 17.5216 17.2135 17.2222 17.8783C17.1991 18.3789 17.1473 18.8876 16.9282 19.3479C16.72 19.8162 16.4464 20.2522 16.1524 20.672C15.7931 21.1969 15.4419 21.7325 14.9873 22.1819C14.5341 22.6193 14.0346 23.0149 13.4752 23.3137C12.5987 23.7282 11.6051 23.9704 10.6306 23.8897C10.2195 23.852 9.82482 23.7201 9.43964 23.5801C9.34436 23.5411 9.23139 23.5182 9.15109 23.4523C9.02315 23.5277 8.88568 23.5909 8.74958 23.6501C8.2909 23.8493 7.79819 24 7.2946 24C7.26194 24 7.22927 24 7.1966 23.9987L7.19933 23.9919ZM3.35432 18.7342C3.50812 19.1944 3.74086 19.6628 4.16007 19.9373C4.46223 20.1297 4.46087 20.2899 4.42003 20.6155C4.3792 21.1255 4.38737 21.4418 4.62419 21.898C4.64869 21.9074 4.67319 21.9209 4.69497 21.9357C4.85285 22.1146 4.99032 22.3098 5.15229 22.4861C5.43539 22.7983 5.74979 23.0916 6.13361 23.2774C6.57596 23.4846 7.06458 23.634 7.55592 23.6192C7.2456 23.4927 6.96114 23.2962 6.69573 23.0984C6.17172 22.6758 5.71304 22.1295 5.5538 21.466C5.50752 21.2507 5.39183 20.9237 5.49119 20.7191C5.61913 20.5173 5.82329 20.5994 5.94987 20.7541C6.06828 20.8712 6.20167 20.9721 6.33913 21.069C6.67123 21.3032 7.07002 21.4081 7.46201 21.4997C7.13536 21.1081 6.92167 20.6236 6.91895 20.1109C6.9067 19.8363 6.93392 19.5591 6.97611 19.2873C7.03328 18.924 7.1721 18.5808 7.27963 18.2296C7.35313 18.0116 7.38035 17.7841 7.40893 17.558C7.4239 17.476 7.41574 17.3844 7.45657 17.3091C7.51645 17.1974 7.67162 17.1732 7.76281 17.2633C7.97105 17.5069 8.1126 17.8016 8.28137 18.0721C8.53181 18.4731 8.79994 18.8513 9.08848 19.2254C9.20553 18.8769 9.36206 18.5418 9.57166 18.239C9.63563 18.1421 9.71185 18.0412 9.82482 18.0008C10.2794 17.8406 10.5013 19.1931 10.6156 19.4986C11.1886 18.9912 11.8651 18.5956 12.385 18.0317C12.4244 17.9739 12.5252 17.9698 12.5538 18.0398C12.5823 18.1286 12.5551 18.2296 12.5538 18.3197C12.5293 18.6938 12.5129 19.0558 12.4884 19.4098C12.4394 19.9588 12.3183 20.5052 12.1168 21.0206C12.3088 20.9775 12.4952 20.9075 12.6885 20.8672C12.9798 20.7999 13.2874 20.777 13.5705 20.6734C13.6317 20.6519 13.6916 20.6276 13.7501 20.5994C13.7923 20.5778 13.8345 20.5563 13.8835 20.5671C14.0387 20.6007 13.9733 20.7864 13.9434 20.8914C13.9121 21.0017 13.8835 21.1107 13.859 21.2224C13.7624 21.6733 13.8209 22.1456 13.7079 22.5924C13.8468 22.5009 13.9829 22.4026 14.1135 22.3004C14.3476 22.1281 14.564 21.937 14.7682 21.7352C14.9193 21.4754 15.0554 21.2063 15.2105 20.9493C15.4378 20.5846 15.6842 20.1728 15.6257 19.7287C15.5916 19.5591 15.5113 19.613 15.4052 19.6856C15.2419 19.7892 15.0731 19.9238 14.8703 19.9279C14.7668 19.9279 14.6729 19.8619 14.6335 19.7691C14.5627 19.5834 14.6947 19.4044 14.7777 19.2456C14.9941 18.8499 15.2609 18.4745 15.3834 18.0371C15.5495 17.4289 15.5399 16.7816 15.7686 16.1895C15.4678 16.4115 15.1588 16.6295 14.8948 16.8946C14.7124 17.0722 14.5504 17.2728 14.3422 17.4221C13.9856 17.698 13.5051 17.5661 13.1866 17.2956C12.6831 16.8663 12.615 16.1275 12.6109 15.5085C12.6245 14.8572 12.6776 14.2005 12.8205 13.564C12.4871 14.0363 12.3632 14.6069 12.1903 15.1479C12.091 15.448 11.9603 15.7386 11.7929 16.0078C11.6514 16.2258 11.4853 16.4438 11.2403 16.5514C10.8497 16.721 10.4332 16.4465 10.2086 16.1356C9.95548 15.7548 9.84659 15.304 9.70232 14.876C9.6016 15.1923 9.48319 15.5112 9.25862 15.7629C8.76999 16.3536 8.37665 15.9889 8.08402 15.4587C7.86216 15.0846 7.65256 14.6997 7.51373 14.288C7.37626 13.856 7.30957 13.4052 7.24016 12.9597C6.94072 13.4186 6.62768 13.8291 6.37044 14.3041C6.19622 14.6163 6.04923 14.9433 5.93626 15.2824C5.82737 15.6081 5.72938 15.9405 5.69807 16.2837C5.66677 16.6134 5.6763 16.9673 5.79743 17.2781C5.83554 17.3791 5.87773 17.4786 5.92537 17.5755C5.99342 17.7047 6.10503 17.8447 6.03834 17.9954C5.98117 18.1313 5.82057 18.1663 5.68582 18.1434C5.53475 18.1259 5.38639 18.0936 5.23939 18.06C4.43773 17.8837 3.77489 17.4679 3.44007 16.7049C3.16649 17.4262 3.10933 17.9927 3.35296 18.7356L3.35432 18.7342ZM6.17853 21.8455C6.41535 22.295 6.76106 22.6785 7.14352 23.0136C7.27146 23.1253 7.40757 23.2262 7.54912 23.3218C7.69339 23.4146 7.84447 23.5142 8.01052 23.5626C8.3712 23.4927 8.72644 23.3823 9.06398 23.2383C9.07079 23.1509 9.12387 23.0661 9.21098 23.0324C9.31714 22.984 9.42739 23.027 9.52947 23.0647C10.3788 23.3985 10.9967 23.4832 11.9004 23.3016C12.3292 23.2074 12.747 23.0903 13.139 22.914C13.188 22.7996 13.2302 22.6825 13.2724 22.5682C13.3949 22.2021 13.4316 21.8146 13.5201 21.4404C13.5718 21.2238 13.6562 21.0179 13.7338 20.8093C13.4248 20.9331 13.0914 20.9762 12.7756 21.0798C12.5905 21.1404 12.4176 21.2278 12.238 21.3005C12.0434 21.3893 11.748 21.4674 11.6868 21.1875C11.6704 21.0515 11.7208 20.9183 11.7507 20.7878C11.8392 20.4742 11.9399 20.1634 12.027 19.8485C12.1727 19.3277 12.2706 18.8028 12.3605 18.2726C11.9385 18.6871 11.4581 19.0585 11.0675 19.5013C10.9178 19.6627 10.7939 19.8444 10.6646 20.0207C10.5816 20.1068 10.4359 20.1041 10.3543 20.018C10.2644 19.9238 10.2781 19.7839 10.2672 19.6641C10.259 19.5053 10.2536 19.3479 10.244 19.1891C10.2141 18.8782 10.2073 18.5445 10.0467 18.2686C10.0167 18.2309 9.96637 18.1529 9.91465 18.1703C9.81121 18.2565 9.78535 18.4058 9.7309 18.5243C9.60296 18.8405 9.51722 19.1716 9.40153 19.4918C9.34436 19.6762 9.13748 19.8 8.97688 19.6466C8.90338 19.5712 8.86799 19.4703 8.81899 19.3788C8.73324 19.2133 8.64341 19.0491 8.5495 18.8876C8.31404 18.4974 8.06496 18.1246 7.78186 17.7707C7.73967 18.208 7.53143 18.601 7.39124 19.0128C7.28916 19.3088 7.24152 19.6197 7.21566 19.9305C7.1898 20.2939 7.23744 20.6707 7.4171 20.9937C7.51509 21.1848 7.66481 21.3462 7.77097 21.532C7.84039 21.6867 7.70972 21.7701 7.56409 21.7325C7.19388 21.6544 6.81687 21.5791 6.4698 21.427C6.29286 21.3462 6.12272 21.252 5.95395 21.1538C6.01112 21.3907 6.06964 21.6302 6.17717 21.8509L6.17853 21.8455ZM2.12936 7.59838C2.18789 7.846 2.3063 8.07208 2.40022 8.30758C2.5336 8.63459 2.61254 8.98178 2.62615 9.33571C2.6316 9.96012 2.55129 10.5966 2.34169 11.1874C2.21103 11.5602 2.03137 11.9114 1.84354 12.2586C1.54138 12.8252 1.09632 13.3204 0.911211 13.9448C0.674386 14.7415 0.935711 15.4897 1.37942 16.1585C1.53458 16.4048 1.6108 16.6874 1.62713 16.9767C1.6843 17.6697 1.69927 18.3695 1.83673 19.0545C1.94426 19.4703 2.0232 19.9171 2.275 20.2764C2.79901 21.0287 3.37882 21.5508 4.26623 21.8011C4.25262 21.7796 4.24037 21.7594 4.22812 21.7405C4.0158 21.392 3.99538 20.9762 3.97905 20.5805C3.97088 20.4998 3.98722 20.4123 3.96816 20.3356C3.86472 20.2091 3.73678 20.1041 3.63878 19.975C3.17738 19.4003 2.92286 18.535 2.88884 17.8084C2.86434 17.3104 3.01814 16.8314 3.12975 16.3509C3.15697 16.2339 3.18827 16.1168 3.21958 15.9997C3.23863 15.9069 3.28355 15.8153 3.37746 15.7777C3.5612 15.7036 3.72181 15.8624 3.70684 16.0441C3.84158 17.0669 4.5752 17.4638 5.51977 17.6428C5.28839 16.9767 5.4 16.2487 5.60008 15.5879C5.82601 14.8303 6.15403 14.1049 6.56235 13.4267C6.71751 13.1643 6.86995 12.9005 7.0183 12.6341C7.085 12.5156 7.15033 12.3972 7.21294 12.2774C7.25105 12.1792 7.3259 12.085 7.44432 12.089C7.65256 12.0971 7.6757 12.2869 7.658 12.451C7.65256 12.591 7.66753 12.731 7.68659 12.8709C7.75872 13.3069 7.82405 13.7483 7.95608 14.1709C8.12485 14.6392 8.37665 15.0765 8.64341 15.4964C8.75638 15.6377 8.75774 15.705 8.91835 15.5623C9.14973 15.3686 9.29672 15.0967 9.41786 14.8316C9.46277 14.7347 9.50633 14.6365 9.54988 14.5383C9.58391 14.4306 9.69824 14.3472 9.78807 14.4548C9.81529 14.4925 9.82073 14.5436 9.8289 14.588C9.87109 14.7778 9.93098 14.9608 9.99087 15.1317C10.1447 15.557 10.3543 16.071 10.8402 16.1962C11.1736 16.2769 11.39 15.7817 11.5261 15.5489C11.7779 15.059 11.8909 14.514 12.1305 14.0175C12.2611 13.7335 12.4449 13.4751 12.6586 13.245C12.7593 13.1495 12.9444 12.8884 13.0873 12.9167C13.1526 12.9288 13.1962 12.9839 13.1894 13.0499C13.1322 13.2652 13.0465 13.4751 13.0029 13.6958C12.9634 13.8762 12.9444 14.0619 12.9294 14.2449C12.8927 14.9877 12.8409 16.3577 13.4207 16.8986C13.5759 17.0211 13.8114 17.1611 14.0101 17.0655C14.2714 16.9054 14.4647 16.6578 14.7056 16.4694C15.0037 16.2244 15.3507 16.0266 15.6937 15.8557C15.8312 15.7884 16.098 15.6269 16.1619 15.8557C16.166 15.9741 16.0653 16.0737 16.0299 16.1827C15.8176 16.6537 15.8244 17.1786 15.7917 17.6845C15.7727 18.3789 15.5236 18.8594 15.1942 19.4528C15.3208 19.4286 15.4528 19.3842 15.5808 19.4232C15.921 19.5497 15.7468 20.1876 15.691 20.4554C15.6665 20.5603 15.6366 20.664 15.6053 20.7676C15.6325 20.7339 15.6583 20.699 15.6842 20.664C16.0912 20.1432 16.5199 19.617 16.7417 18.9872C16.822 18.7409 16.8465 18.4799 16.8329 18.2215C16.7717 17.7693 16.7145 17.7195 16.9377 17.2822C17.1637 16.8071 17.4032 16.3388 17.5829 15.8449C17.9095 14.8733 18.0661 13.8398 18.0034 12.8171C17.9667 12.3447 17.8633 11.8805 17.7312 11.4256C17.6006 10.9533 17.4196 10.4971 17.2862 10.0261C17.112 9.40568 17.0235 8.76109 17.0806 8.11783C16.3307 8.89969 16.3593 9.7771 16.5702 10.7635C16.6723 11.1928 16.822 11.61 16.8806 12.0487C16.9568 12.5668 16.9078 13.1306 16.5825 13.5626C16.2749 13.9865 15.7114 14.3687 15.1711 14.3687C14.8757 14.3687 14.5845 14.2301 14.4007 14C14.168 13.7066 14.1176 13.3217 14.0591 12.9638C14.0074 12.5937 13.9801 12.2196 13.9883 11.8455C14.0033 11.3933 14.0713 10.9438 14.0604 10.4903C14.0577 9.79729 13.9693 9.10155 13.7447 8.4435C13.5732 7.93212 13.2629 7.48534 13.0002 7.01838C12.973 7.4369 13.0437 7.85273 13.0696 8.2699C13.12 8.91181 12.9702 9.54968 12.7361 10.1445C12.5034 10.7326 12.2666 11.3206 12.0066 11.898C11.7779 12.3757 11.5248 12.9759 10.9368 13.0795C10.4427 13.1885 9.9582 12.8601 9.7486 12.4282C9.46822 11.8697 9.35389 11.2439 9.30489 10.6263C9.2627 9.8888 9.40969 9.15403 9.60841 8.44619C9.72818 8.00075 9.9092 7.55936 10.0072 7.11123C10.078 6.76 10.1011 6.4007 10.1011 6.04273C10.0984 5.68343 10.0793 5.32277 10.014 4.96885C9.96365 4.73604 9.89831 4.50862 9.83571 4.27984C9.74179 3.91785 9.64516 3.55585 9.5771 3.18712C9.40969 2.23704 9.69824 1.31657 10.0848 0.455312C9.23548 1.1672 8.91699 1.87774 8.82852 2.96239C8.78088 3.57334 8.86119 4.18295 8.8503 4.79391C8.83533 5.44254 8.59578 6.06023 8.34942 6.65504C7.8608 7.84734 7.09452 8.56326 6.23705 9.47835C5.68038 10.1445 5.21081 10.9398 5.14548 11.8172C5.12098 12.3084 5.15093 12.8077 5.01482 13.2854C4.90729 13.6555 4.74669 14.0928 4.34245 14.226C4.16824 14.2839 3.98041 14.2435 3.82525 14.1507C3.35977 14.0013 3.21005 13.4751 3.1488 13.0445C3.03583 12.2761 3.32302 11.5333 3.49859 10.7972C3.55848 10.4903 3.54623 10.1768 3.5299 9.86592C3.5054 9.22401 3.24816 8.62248 2.89156 8.09361C2.79084 7.93885 2.68059 7.79082 2.59349 7.62799C2.44105 7.34674 2.3308 7.03587 2.32672 6.71425C2.15658 7.01703 2.03953 7.24311 2.1212 7.59569L2.12936 7.59838Z" fill="#6D489C"/>
<path d="M1.93587 19.4974C1.68705 19.1439 1.61038 18.7057 1.50279 18.2952C1.36694 17.6214 1.35215 16.9342 1.29566 16.2511C1.27817 15.9678 1.20285 15.6898 1.05087 15.4462C0.612406 14.7882 0.354168 14.0521 0.588196 13.2683C0.771114 12.654 1.21092 12.1668 1.50951 11.6094C1.69512 11.2692 1.87266 10.9223 2.00178 10.5556C2.21025 9.9744 2.28826 9.34819 2.28288 8.73389C2.26943 8.38702 2.19142 8.04413 2.05961 7.72242C1.96681 7.49073 1.84845 7.26831 1.79196 7.02471C1.71126 6.67785 1.82693 6.4541 1.99505 6.15755C1.99774 6.47396 2.10803 6.77979 2.25867 7.05649C2.34475 7.21668 2.45369 7.36364 2.55322 7.51456C2.90561 8.03486 3.15981 8.62798 3.18402 9.25816C3.20016 9.56399 3.21226 9.87246 3.15308 10.1743C2.97958 10.8985 2.69579 11.6293 2.80742 12.3853C2.86795 12.8089 3.01589 13.3266 3.47588 13.4735C3.62921 13.5649 3.81482 13.6046 3.98697 13.5477C4.38509 13.4166 4.54514 12.9863 4.6514 12.6222C4.78724 12.1523 4.75765 11.6611 4.78052 11.1778C4.84508 10.3147 5.3091 9.53222 5.85919 8.87687C6.70654 7.97661 7.46376 7.27229 7.94661 6.09929C8.19005 5.51545 8.42543 4.90777 8.44157 4.26831C8.45233 3.66726 8.37163 3.06752 8.42005 2.46646C8.50882 1.39938 8.8222 0.699029 9.66147 0C9.27949 0.847308 8.99436 1.75419 9.15979 2.68756C9.22704 3.04899 9.32388 3.40644 9.41534 3.76258C9.47721 3.98764 9.54177 4.21271 9.59153 4.44042C9.65609 4.78861 9.67492 5.14342 9.67761 5.49691C9.67761 5.84907 9.6534 6.20124 9.5848 6.5481C9.48797 6.98897 9.30908 7.42321 9.19072 7.86143C8.99436 8.55781 8.8491 9.28067 8.89079 10.0062C8.93787 10.6139 9.05085 11.2295 9.32926 11.7789C9.53639 12.2026 10.0152 12.5256 10.5034 12.4197C11.0845 12.3177 11.336 11.7273 11.5606 11.2573C11.8175 10.6893 12.0515 10.1108 12.2815 9.53222C12.5142 8.94572 12.6621 8.31951 12.611 7.688C12.5868 7.27758 12.5155 6.86849 12.5424 6.45675C12.802 6.91615 13.1087 7.35569 13.2781 7.85878C13.5001 8.50618 13.5861 9.19064 13.5902 9.87246C13.6009 10.3186 13.5337 10.7608 13.5189 11.2056C13.5108 11.5737 13.5377 11.9417 13.5888 12.3058C13.6467 12.658 13.6964 13.0366 13.9264 13.3252C14.1066 13.5503 14.3945 13.6893 14.6877 13.688C15.2216 13.688 15.7798 13.312 16.0824 12.895C16.4039 12.47 16.4523 11.9153 16.377 11.4056C16.3191 10.974 16.1712 10.5635 16.0703 10.1412C15.8619 9.17079 15.8336 8.30759 16.5747 7.53839C16.5182 8.17123 16.6056 8.80538 16.7778 9.41571C16.9083 9.87908 17.0885 10.3279 17.2176 10.7926C17.3467 11.2401 17.4489 11.6968 17.4866 12.1615C17.5485 13.1677 17.3938 14.1858 17.071 15.1403C16.8935 15.6262 16.6567 16.0883 16.4335 16.5543C16.2129 16.9846 16.2694 17.0322 16.3299 17.4784C16.3434 17.7326 16.3178 17.9894 16.2398 18.2317C16.0219 18.8513 15.5969 19.3689 15.1947 19.8813C15.1692 19.9157 15.1423 19.9488 15.1167 19.9832C15.149 19.8813 15.1773 19.7793 15.2015 19.6761C15.2553 19.4126 15.4288 18.7851 15.0925 18.6606C14.9661 18.6222 14.8356 18.6673 14.7105 18.6898C15.0347 18.1059 15.2808 17.6333 15.301 16.9501C15.3333 16.4537 15.3265 15.936 15.5364 15.4726C15.5713 15.3641 15.6709 15.2661 15.6668 15.1509C15.6036 14.9272 15.34 15.0847 15.2042 15.1509C14.8652 15.3191 14.5222 15.515 14.2277 15.7546C13.991 15.94 13.8 16.1836 13.5404 16.3411C13.3454 16.4338 13.1114 16.2974 12.958 16.177C12.3851 15.6447 12.4362 14.297 12.4725 13.5662C12.4886 13.3848 12.5075 13.2034 12.5451 13.026C12.5882 12.8089 12.6729 12.6037 12.7294 12.3906C12.7361 12.3257 12.6931 12.2714 12.6285 12.2595C12.4873 12.2317 12.3044 12.4885 12.2048 12.5825C11.9937 12.8076 11.8121 13.0618 11.683 13.3425C11.4476 13.8297 11.3346 14.3658 11.0858 14.8491C10.9513 15.0781 10.7361 15.5653 10.4079 15.4859C9.92778 15.3614 9.72065 14.857 9.56866 14.4387C9.50949 14.2705 9.45031 14.0905 9.40861 13.9038C9.40054 13.8588 9.39516 13.8098 9.36826 13.7727C9.27949 13.6681 9.16651 13.7489 9.13289 13.8548C9.08985 13.9515 9.04547 14.0468 9.00243 14.1434C8.88138 14.4042 8.73746 14.673 8.50882 14.8623C8.35011 15.004 8.34876 14.9365 8.23713 14.7974C7.97351 14.3844 7.72469 13.9541 7.55791 13.4934C7.42745 13.0763 7.36289 12.6434 7.2916 12.2145C7.27277 12.0781 7.25798 11.9404 7.26336 11.8014C7.28084 11.6399 7.25798 11.4532 7.0522 11.4453C6.93653 11.44 6.86255 11.5327 6.82355 11.6306C6.76168 11.7485 6.69578 11.865 6.63122 11.9815C6.48461 12.2436 6.33397 12.5031 6.18065 12.7613C5.77715 13.4298 5.45435 14.1421 5.22974 14.8875C5.03068 15.5375 4.92174 16.2524 5.15039 16.9091C4.21697 16.7343 3.49202 16.3425 3.35887 15.3363C3.37232 15.1562 3.21361 15 3.03338 15.0741C2.94058 15.1112 2.89619 15.1999 2.87736 15.2926C2.84643 15.4078 2.81549 15.5216 2.78859 15.6381C2.6783 16.1094 2.52632 16.5821 2.55053 17.0719C2.5855 17.7868 2.83701 18.6381 3.29162 19.2034C3.3898 19.3319 3.51488 19.4351 3.6171 19.5583C3.63593 19.635 3.61979 19.7198 3.62786 19.7992C3.644 20.1884 3.66283 20.5975 3.874 20.9404C3.88476 20.959 3.89686 20.9788 3.91166 21C3.03472 20.7538 2.46176 20.2401 1.94394 19.5L1.93587 19.4974Z" fill="#F7941E"/>
<path d="M6.0129 6.15655C6.02787 5.84636 6.01981 5.53353 5.94957 5.23258C5.88163 4.93295 5.75726 4.65575 5.66399 4.36668C5.39223 3.47043 5.48666 2.87909 5.73999 2C5.79757 2.37355 5.90121 2.73522 6.0129 3.0916C6.21557 3.72254 6.48158 4.34556 6.5 5.03062C6.48733 5.68136 6.20636 6.43638 5.93115 7C5.97951 6.72281 5.99909 6.43902 6.01406 6.15655H6.0129Z" fill="#F6543F"/>
<path d="M0.549474 10.3961C0.619977 10.2111 0.743691 10.0065 0.925936 10C1.03502 10.2831 0.95121 10.9493 0.650573 11C0.429751 10.9558 0.504245 10.5794 0.549474 10.3961Z" fill="#F6543F"/>
<path d="M11.8968 5.39702C11.5044 4.96883 11.4315 4.46748 11.5547 4C12.6312 4.57588 12.6538 5.24797 12.2841 6C12.2036 5.78997 12.0879 5.58537 11.8968 5.39702Z" fill="#F6543F"/>
<path d="M14.7583 7C15.1055 7.8855 14.9046 8.14656 14.7051 9C14.431 8.34962 14.4151 7.62137 14.7583 7Z" fill="#F6543F"/>
<path d="M18.5046 11.2394C18.486 11.1583 18.5259 11.0881 18.5844 11.034C18.7068 10.926 18.8186 11.1002 18.8505 11.2097C18.9064 11.3515 18.8492 11.9433 18.6975 12C18.4887 11.8581 18.5339 11.4677 18.5059 11.2394H18.5046Z" fill="#F6543F"/>
<path d="M6.30047 23.6487C5.93404 23.4556 5.63389 23.1529 5.36362 22.8321C5.209 22.6516 5.07776 22.4488 4.92703 22.2641C4.90624 22.2474 4.88415 22.2349 4.85947 22.2252C4.63338 21.7545 4.62558 21.4295 4.66456 20.9018C4.70224 20.5657 4.70354 20.3991 4.41638 20.2019C4.01618 19.9186 3.79398 19.4353 3.64716 18.9604C3.41457 18.1938 3.46914 17.6091 3.73031 16.8648C4.04996 17.6522 4.68275 18.0813 5.44808 18.2632C5.58841 18.2979 5.73004 18.3313 5.87427 18.3493C6.00291 18.3729 6.15624 18.3368 6.21081 18.1966C6.27448 18.0396 6.16663 17.8952 6.10296 17.7633C6.05748 17.6633 6.0172 17.5605 5.98082 17.4564C5.86518 17.1356 5.85738 16.7704 5.88597 16.4301C5.91455 16.076 6.00941 15.733 6.11336 15.3969C6.22121 15.047 6.36154 14.7095 6.52786 14.3873C6.77344 13.8971 7.07229 13.4736 7.35815 13C7.42312 13.4611 7.48809 13.9249 7.61933 14.3707C7.75186 14.7956 7.95196 15.1928 8.16376 15.5788C8.44313 16.126 8.81864 16.5023 9.28512 15.8927C9.50081 15.633 9.61256 15.3039 9.70871 14.9775C9.84774 15.4178 9.95169 15.8844 10.1921 16.2774C10.4065 16.5982 10.8028 16.8815 11.177 16.7065C11.4109 16.5954 11.5707 16.369 11.7045 16.1454C11.8644 15.8677 11.9891 15.5677 12.084 15.258C12.249 14.6998 12.3672 14.1124 12.6856 13.6235C12.5491 14.2804 12.4985 14.9581 12.4855 15.6302C12.4894 16.2676 12.5543 17.03 13.0351 17.4744C13.3391 17.7522 13.7978 17.8897 14.1383 17.605C14.3371 17.4508 14.4917 17.2439 14.6658 17.0606C14.9192 16.787 15.2128 16.5621 15.5 16.3329C15.2817 16.9439 15.2895 17.6133 15.1323 18.2396C15.014 18.6909 14.7607 19.0784 14.5541 19.4867C14.4748 19.6505 14.3488 19.8352 14.4163 20.0269C14.454 20.1227 14.5437 20.1908 14.6424 20.1908C14.836 20.1852 14.9971 20.0477 15.1531 19.9408C15.2544 19.8658 15.3311 19.8103 15.3636 19.9852C15.4194 20.4435 15.1843 20.8685 14.9673 21.2448C14.8191 21.51 14.6879 21.7878 14.545 22.0558C14.3501 22.2655 14.1435 22.4613 13.92 22.6391C13.7952 22.746 13.6653 22.846 13.5328 22.9404C13.6406 22.4794 13.5847 21.9919 13.677 21.5267C13.7004 21.4114 13.7277 21.299 13.7575 21.1851C13.7861 21.0781 13.8485 20.8851 13.7004 20.8504C13.6536 20.8407 13.6133 20.8629 13.573 20.8837C13.5172 20.9129 13.46 20.9379 13.4015 20.9601C13.1325 21.067 12.8389 21.0893 12.5595 21.1601C12.375 21.2017 12.1983 21.2726 12.0138 21.3184C12.2061 20.7879 12.3217 20.2227 12.3685 19.6561C12.3932 19.2909 12.4075 18.9173 12.4309 18.5312C12.4309 18.4382 12.4582 18.334 12.4309 18.2424C12.4036 18.1702 12.3075 18.1757 12.2698 18.2341C11.7747 18.8159 11.1276 19.2242 10.5806 19.7478C10.4714 19.4325 10.2596 18.0369 9.82565 18.2021C9.71781 18.2452 9.64504 18.3493 9.58397 18.4479C9.38257 18.7604 9.23444 19.1062 9.1227 19.4659C8.84853 19.0798 8.59255 18.6896 8.35217 18.2757C8.19105 17.9952 8.05591 17.6925 7.85711 17.4411C7.77135 17.3481 7.62192 17.3731 7.56475 17.4883C7.52447 17.5661 7.53357 17.6605 7.51928 17.7452C7.49199 17.9785 7.466 18.2132 7.39583 18.4382C7.29189 18.8007 7.16065 19.1534 7.10608 19.5297C7.0658 19.8103 7.03981 20.0963 7.0515 20.3796C7.0528 20.9087 7.2568 21.4087 7.56995 21.8128C7.19573 21.7183 6.81502 21.61 6.49797 21.3684C6.36803 21.2684 6.2407 21.1642 6.12635 21.0434C6.00421 20.8837 5.8106 20.799 5.68846 21.0073C5.59361 21.2184 5.70276 21.5559 5.74823 21.7781C5.89896 22.4627 6.33815 23.0251 6.83841 23.4626C7.09178 23.6681 7.36335 23.8695 7.65961 24C7.63752 24 7.61673 24 7.59464 24C7.14766 24 6.70587 23.8514 6.30177 23.6473L6.30047 23.6487Z" fill="#F9ED32"/>
<path d="M8.13891 23.756C7.99475 23.6571 7.85339 23.5525 7.72183 23.4368C7.32855 23.0911 6.97306 22.6924 6.72953 22.2268C6.61896 21.9981 6.55878 21.75 6.5 21.5046C6.67355 21.6064 6.8471 21.704 7.03044 21.7876C7.38733 21.9452 7.77502 22.0232 8.1557 22.1041C8.30546 22.1431 8.44122 22.0567 8.36844 21.8964C8.25927 21.704 8.10532 21.5381 8.00455 21.3388C7.8212 21.0042 7.77222 20.6138 7.79741 20.2375C7.824 19.9154 7.87299 19.5934 7.97796 19.2867C8.12211 18.8615 8.33625 18.4531 8.37964 18C8.67075 18.368 8.92687 18.7542 9.169 19.1571C9.26697 19.3243 9.35794 19.4944 9.44612 19.6659C9.4951 19.7607 9.53289 19.8652 9.60847 19.9433C9.77362 20.1022 9.98635 19.9726 10.0451 19.783C10.1641 19.4512 10.2509 19.1083 10.3838 18.7807C10.4398 18.658 10.4664 18.5046 10.5728 18.414C10.626 18.3959 10.6777 18.4768 10.7085 18.5158C10.8737 18.803 10.8821 19.1487 10.9115 19.4693C10.9213 19.6338 10.9269 19.7969 10.9353 19.9614C10.9465 20.0855 10.9325 20.2305 11.0248 20.3281C11.1088 20.4173 11.2586 20.4201 11.3439 20.3309C11.4769 20.1482 11.6043 19.96 11.7582 19.7928C12.1599 19.3341 12.654 18.9494 13.0878 18.52C12.9955 19.0692 12.8947 19.6129 12.7449 20.1524C12.6554 20.4786 12.5518 20.8007 12.4608 21.1255C12.43 21.2607 12.3768 21.3987 12.395 21.5395C12.4594 21.8295 12.7631 21.75 12.9619 21.6566C13.1466 21.5799 13.3244 21.4893 13.5147 21.428C13.8394 21.3206 14.1823 21.2774 14.5 21.1478C14.4202 21.3638 14.3321 21.5771 14.2803 21.8016C14.1893 22.1891 14.1515 22.5906 14.0255 22.9698C13.9808 23.0897 13.9374 23.211 13.8884 23.3281C13.4853 23.5107 13.057 23.632 12.6148 23.7296C11.6868 23.9191 11.0514 23.8299 10.1767 23.4842C10.0717 23.4438 9.95976 23.3992 9.8492 23.4507C9.75962 23.4856 9.70504 23.5734 9.69804 23.664C9.35094 23.8132 8.98565 23.9261 8.61477 24C8.44262 23.9498 8.28866 23.8467 8.14031 23.7505L8.13891 23.756Z" fill="#F9EFAA"/>
<path d="M1.75097 14.9068C1.70111 14.8197 1.63464 14.7388 1.58811 14.6517C1.47677 14.4138 1.48841 14.1551 1.52829 13.9074C1.61969 13.255 2.03514 12.6701 2.34755 12.0668C2.35254 12.057 2.35586 12.0484 2.35919 12.0386C2.36749 12.0104 2.4107 11.9944 2.44726 12.0018C2.48382 12.0091 2.50875 12.0398 2.49711 12.0668C2.46222 12.1453 2.4323 12.2262 2.40073 12.3047C2.28607 12.5806 2.17805 12.8589 2.09496 13.141C2.00689 13.4659 1.95038 13.7995 1.9803 14.1318C2.00024 14.3182 2.07502 14.496 2.1149 14.6787C2.13152 14.7535 2.19965 14.8295 2.15146 14.9044C2.11656 14.9681 2.03514 15 1.95371 15C1.87228 15 1.78919 14.9681 1.75263 14.9044L1.75097 14.9068Z" fill="#FF7A3C"/>
<path d="M2.52628 18.8353C2.48904 18.6097 2.49436 18.3685 2.52362 18.143C2.53559 18.0449 2.6061 17.9371 2.66197 18.0449C2.68059 18.0881 2.68458 18.141 2.69655 18.1861C2.73646 18.3842 2.87747 18.6921 2.80963 18.8882C2.78169 18.9627 2.72981 19 2.67793 19C2.61142 19 2.54358 18.9412 2.52628 18.8333V18.8353Z" fill="#FF7A3C"/>
<path d="M7.51365 8.972C7.48515 8.92882 7.50382 8.86698 7.54608 8.84831C7.58048 8.81564 7.60897 8.77714 7.63846 8.73863C7.77505 8.54027 7.86644 8.3034 7.94113 8.06537C8.00795 7.83784 8.05512 7.60214 8.13669 7.38161C8.17502 7.2836 8.22415 7.19025 8.26149 7.09107C8.28704 7.01756 8.3637 6.97906 8.42561 7.01173C8.52289 7.0654 8.51012 7.17742 8.46983 7.27426C8.41283 7.5263 8.33323 7.769 8.23693 8.00353C8.13767 8.2649 8.00894 8.51227 7.85072 8.7293C7.78095 8.82381 7.69742 8.90082 7.61487 8.97666C7.60111 8.99183 7.58342 9 7.56573 9C7.54706 9 7.52839 8.99067 7.51463 8.96966L7.51365 8.972Z" fill="#FF7A3C"/>
<path d="M8.71792 11.9442C8.58356 11.6598 8.51173 11.3553 8.50241 11.0509C8.4931 11.0288 8.51173 11.0035 8.54099 11.0004C8.56893 10.9972 8.59553 11.0151 8.5942 11.0372C8.5942 11.0478 8.59952 11.0604 8.60085 11.0657C8.682 11.3406 8.81902 11.6039 8.94007 11.8683C8.97732 11.9431 8.90016 12 8.82434 12C8.7831 12 8.74053 11.9831 8.71792 11.9421V11.9442Z" fill="#FF7A3C"/>
<path d="M12.7388 11C12.6457 11 12.5606 10.9233 12.5646 10.8325C12.5366 10.2852 12.679 9.71865 12.5419 9.18028C12.4063 9.06263 12.6377 8.90662 12.7016 9.07158C12.8293 9.29793 13.1485 11 12.7495 11C12.7455 11 12.7428 11 12.7388 11Z" fill="#FF7A3C"/>
<path d="M16.635 14.9829C16.5242 14.9402 16.4703 14.8106 16.5167 14.7067C16.5646 14.5871 16.6096 14.4661 16.656 14.3465C16.7489 14.1016 16.8612 13.8652 16.9825 13.6331C17.1668 13.2715 17.2956 12.8813 17.321 12.4784C17.3255 12.3431 17.3285 12.2093 17.327 12.074C17.327 12.0327 17.363 12 17.4049 12C17.4469 12 17.4843 12.0342 17.4843 12.074C17.4888 12.3816 17.5173 12.6891 17.4843 12.9967C17.4588 13.485 17.2986 13.9506 17.1173 14.4048C17.0544 14.5615 16.987 14.7167 16.9241 14.8719C16.8912 14.953 16.8043 15 16.7174 15C16.6889 15 16.6605 14.9943 16.6335 14.9843L16.635 14.9829Z" fill="#FF7A3C"/>
<path d="M13.5209 15.8439C13.4836 15.5808 13.4903 15.3028 13.59 15.0575C13.5954 15.0159 13.6379 14.9876 13.6725 15.0054C13.7164 15.0277 13.7297 15.0857 13.739 15.1348C13.7803 15.3533 13.8175 15.5733 13.8428 15.7963C13.8561 15.9257 13.7683 16 13.6805 16C13.61 16 13.5382 15.9509 13.5222 15.8454L13.5209 15.8439Z" fill="#FF7A3C"/>
<path d="M4.328 19.9959C4.147 19.8905 4.06481 19.5578 3.95123 19.3387C3.76746 18.969 3.57353 18.5966 3.50334 18.1394C3.47471 17.9901 3.63909 17.9395 3.65202 18.0942C3.65294 18.153 3.66957 18.2051 3.68527 18.2571C3.79608 18.583 4.00386 18.7979 4.16824 19.0594C4.27998 19.2388 4.36494 19.4482 4.46837 19.6372C4.54687 19.7768 4.46837 20 4.35201 20C4.34463 20 4.33632 20 4.328 19.9973V19.9959Z" fill="#FFBF67"/>
<path d="M6.72012 16.9973C6.33123 16.8926 6.57164 16.2577 6.59285 16.0483C6.63763 15.7913 6.67534 15.533 6.79319 15.2829C6.84504 15.1931 6.85683 15.0776 7.01474 15.0259C7.24808 14.9403 7.57099 15.0817 7.48614 15.2353C7.34708 15.5412 7.17502 15.8417 7.0006 16.1408C6.87333 16.3855 6.70363 16.6438 6.78141 16.9021C6.78141 16.9048 6.78376 16.9075 6.78612 16.9116C6.85211 16.9375 6.81205 17 6.73898 17C6.73427 17 6.72955 17 6.72484 17L6.72012 16.9973Z" fill="#FFBF67"/>
<path d="M9.53101 16.8848C9.48844 16.5967 9.43922 15.8975 9.75981 16.0127C9.94871 16.1438 9.81036 16.4537 9.77178 16.6623C9.73454 16.7696 9.76114 16.9325 9.67467 16.9881C9.66137 16.996 9.64807 17 9.63477 17C9.58821 17 9.54431 16.9543 9.53101 16.8828V16.8848Z" fill="#FFBF67"/>
<path d="M11.5406 17.9888C11.4849 17.9522 11.4911 17.8869 11.5313 17.8391C11.604 17.6591 11.6658 17.4759 11.7308 17.2927C11.8235 17.0171 11.8854 16.7335 11.9627 16.4547C12.0137 16.3097 12.0307 16.125 12.1621 16.0326C12.3322 15.9258 12.5455 16.0995 12.4914 16.2938C12.4064 16.6077 12.2441 16.8928 12.0987 17.1812C11.9921 17.3835 11.8776 17.5826 11.7617 17.7786C11.7122 17.8423 11.6689 18 11.5808 18C11.5684 18 11.5545 17.9968 11.539 17.9888H11.5406Z" fill="#FFBF67"/>
<path d="M13.5567 18.9951C13.4992 18.972 13.479 18.9063 13.5265 18.8674C13.5553 18.8479 13.5826 18.8272 13.6085 18.8041C13.7409 18.6824 13.8574 18.5108 13.9395 18.3757C14.0057 18.2674 14.056 18.1506 14.1582 18.0618C14.2963 17.917 14.5668 18.0496 14.4848 18.2236C14.4114 18.4025 14.2272 18.523 14.0862 18.6641C13.9913 18.742 13.7409 19 13.5884 19C13.5769 19 13.5653 18.9988 13.5553 18.9951H13.5567Z" fill="#FFBF67"/>
<path d="M9.45193 21.9984C9.09435 21.7168 8.89057 21.3254 8.7214 20.9467C8.63681 20.7526 8.53492 20.5585 8.51377 20.35C8.51377 20.2371 8.4388 20.0111 8.63873 20C8.82713 20.008 8.75408 20.2021 8.79829 20.3055C8.93094 20.7176 8.99438 21.1472 9.22123 21.5338C9.27506 21.6277 9.33273 21.7104 9.39425 21.7979C9.41348 21.8361 9.56535 22 9.4673 22C9.46346 22 9.45769 22 9.45193 22V21.9984Z" fill="white"/>
<path d="M9.5454 21.9766C9.49086 21.909 9.51081 21.8119 9.50549 21.7332C9.50283 21.5376 9.4882 21.3433 9.52146 21.1491C9.53742 21.0003 9.76356 20.9449 9.85801 21.0667C9.88994 21.1048 9.90058 21.1503 9.89526 21.197C9.88727 21.2757 9.88062 21.3544 9.86333 21.4331C9.82741 21.5745 9.78618 21.7147 9.74361 21.8537C9.72764 21.9115 9.67044 22 9.60393 22C9.58531 22 9.56668 21.9939 9.54673 21.9779L9.5454 21.9766Z" fill="white"/>
<path d="M10.5606 23C10.4161 22.9429 10.571 22.7423 10.6049 22.642C10.7325 22.3548 10.8354 22.0504 10.933 21.7426C11.002 21.5229 11.0867 21.3153 11.1791 21.113C11.2989 20.8587 11.5841 21.0766 11.476 21.343C11.3171 21.791 11.0815 22.1784 10.8666 22.5797C10.795 22.7094 10.7195 22.834 10.6335 22.9464C10.6218 22.9775 10.5971 23 10.571 23C10.5684 23 10.5645 23 10.5619 23H10.5606Z" fill="white"/>
</g>
<defs>
<clipPath id="clip0_349_776">
<rect width="19" height="24" fill="white" transform="translate(0.5)"/>
</clipPath>
</defs>
</svg>
