<svg width="70" height="53" viewBox="0 0 70 53" fill="none" xmlns="http://www.w3.org/2000/svg">
<path d="M20.9457 23.8971V23.3971H20.4457H16.6052C16.2669 23.3971 16.01 23.237 15.8195 22.9626C15.6201 22.6754 15.5077 22.2754 15.5083 21.8819V21.8811C15.5083 21.4909 15.5271 21.2988 15.5884 21.1354C15.6439 20.9874 15.7511 20.8206 16.0155 20.5494L33.6382 11.2919L33.9057 11.1514V10.8493V1.7466C33.9098 1.74066 33.9164 1.73197 33.9268 1.7205C33.9694 1.67333 34.0471 1.61268 34.1616 1.55168C34.3969 1.42627 34.6767 1.35715 34.8457 1.35715C35.0147 1.35715 35.2945 1.42627 35.5299 1.55168C35.6443 1.61268 35.722 1.67332 35.7646 1.7205C35.775 1.73197 35.7816 1.74066 35.7857 1.7466V2.10707V2.40808L36.0517 2.54895C37.5938 3.36545 39.1227 3.1082 40.6251 2.85543C40.6969 2.84335 40.7686 2.83127 40.8403 2.81933C42.3526 2.56737 43.9469 2.33879 45.8657 2.94406V7.9184C43.8404 7.35144 42.142 7.60596 40.677 7.85015C40.641 7.85615 40.6053 7.86213 40.5696 7.86807C38.9722 8.13476 37.7563 8.33775 36.5197 7.68295L35.7857 7.29431V8.12483V10.8493V11.1542L36.0568 11.2938L54.0573 20.5649C54.4496 21.0364 54.5057 21.4826 54.5057 21.8826C54.5057 22.2175 54.3498 22.6053 54.0719 22.9124C53.7964 23.2169 53.443 23.3971 53.0847 23.3971H49.2457H48.7457V23.8971V46.4371H43.9857V26.7771V26.2771H43.4857H37.7257H37.2257V26.7771V46.4371H32.4657V26.7771V26.2771H31.9657H26.2057H25.7057V26.7771V46.4371H20.9457V23.8971ZM33.8999 1.75631C33.8999 1.75631 33.9001 1.7558 33.9007 1.75477L33.8999 1.75631ZM35.7915 1.75631C35.7914 1.75631 35.7912 1.75579 35.7908 1.75476L35.7915 1.75631ZM52.3684 46.6485L52.2189 46.4371H51.9601H51.1857V25.8371H68.9057V52.1971H57.928L56.7167 50.9794L56.7105 50.9732L56.7041 50.9672L52.9021 47.4034L52.3684 46.6485ZM59.3257 43.1171H59.8257V42.6171V38.2971V37.7971H59.3257H55.0057H54.5057V38.2971V42.6171V43.1171H55.0057H59.3257ZM59.3257 34.4771H59.8257V33.9771V29.6571V29.1571H59.3257H55.0057H54.5057V29.6571V33.9771V34.4771H55.0057H59.3257ZM65.0857 43.1171H65.5857V42.6171V38.2971V37.7971H65.0857H62.2057H61.7057V38.2971V42.6171V43.1171H62.2057H65.0857ZM65.0857 34.4771H65.5857V33.9771V29.6571V29.1571H65.0857H62.2057H61.7057V29.6571V33.9771V34.4771H62.2057H65.0857ZM17.7299 46.4371H17.4713L17.3219 46.6481L16.7852 47.4058L12.9844 51.1111L11.778 52.1971H0.785706V25.8371H18.5057V46.4371H17.7299ZM7.48571 43.1171H7.98571V42.6171V38.2971V37.7971H7.48571H4.60571H4.10571V38.2971V42.6171V43.1171H4.60571H7.48571ZM7.48571 34.4771H7.98571V33.9771V29.6571V29.1571H7.48571H4.60571H4.10571V29.6571V33.9771V34.4771H4.60571H7.48571ZM14.6857 43.1171H15.1857V42.6171V38.2971V37.7971H14.6857H10.3657H9.86571V38.2971V42.6171V43.1171H10.3657H14.6857ZM14.6857 34.4771H15.1857V33.9771V29.6571V29.1571H14.6857H10.3657H9.86571V29.6571V33.9771V34.4771H10.3657H14.6857ZM53.7986 52.1971H15.8928L19.2128 48.8771H50.4786L53.7986 52.1971Z" stroke="#6D489C"/>
</svg>
