<svg width="32" height="32" viewBox="0 0 32 32" fill="none" xmlns="http://www.w3.org/2000/svg">
<path d="M10.83 3H22.17C26.49 3 30 6.51 30 10.83V22.17C30 24.2466 29.1751 26.2382 27.7066 27.7066C26.2382 29.1751 24.2466 30 22.17 30H10.83C6.51 30 3 26.49 3 22.17V10.83C3 8.75336 3.82494 6.76176 5.29335 5.29335C6.76176 3.82494 8.75336 3 10.83 3ZM10.56 5.7C9.27105 5.7 8.03489 6.21203 7.12346 7.12346C6.21203 8.03489 5.7 9.27105 5.7 10.56V22.44C5.7 25.1265 7.8735 27.3 10.56 27.3H22.44C23.729 27.3 24.9651 26.788 25.8765 25.8765C26.788 24.9651 27.3 23.729 27.3 22.44V10.56C27.3 7.8735 25.1265 5.7 22.44 5.7H10.56ZM23.5875 7.725C24.0351 7.725 24.4643 7.90279 24.7807 8.21926C25.0972 8.53573 25.275 8.96495 25.275 9.4125C25.275 9.86005 25.0972 10.2893 24.7807 10.6057C24.4643 10.9222 24.0351 11.1 23.5875 11.1C23.1399 11.1 22.7107 10.9222 22.3943 10.6057C22.0778 10.2893 21.9 9.86005 21.9 9.4125C21.9 8.96495 22.0778 8.53573 22.3943 8.21926C22.7107 7.90279 23.1399 7.725 23.5875 7.725ZM16.5 9.75C18.2902 9.75 20.0071 10.4612 21.273 11.727C22.5388 12.9929 23.25 14.7098 23.25 16.5C23.25 18.2902 22.5388 20.0071 21.273 21.273C20.0071 22.5388 18.2902 23.25 16.5 23.25C14.7098 23.25 12.9929 22.5388 11.727 21.273C10.4612 20.0071 9.75 18.2902 9.75 16.5C9.75 14.7098 10.4612 12.9929 11.727 11.727C12.9929 10.4612 14.7098 9.75 16.5 9.75ZM16.5 12.45C15.4259 12.45 14.3957 12.8767 13.6362 13.6362C12.8767 14.3957 12.45 15.4259 12.45 16.5C12.45 17.5741 12.8767 18.6043 13.6362 19.3638C14.3957 20.1233 15.4259 20.55 16.5 20.55C17.5741 20.55 18.6043 20.1233 19.3638 19.3638C20.1233 18.6043 20.55 17.5741 20.55 16.5C20.55 15.4259 20.1233 14.3957 19.3638 13.6362C18.6043 12.8767 17.5741 12.45 16.5 12.45Z" fill="#6D489C"/>
</svg>
