<svg width="72" height="32" viewBox="0 0 72 32" fill="none" xmlns="http://www.w3.org/2000/svg">
<path d="M71.4102 0.337402H4.64331V27.7151H71.4102V0.337402Z" fill="white"/>
<path d="M70.7696 0H5.47243C5.14947 0 4.85705 0.129032 4.64327 0.337469L0.388255 4.00993C0.169892 4.19851 0.0446777 4.47185 0.0446777 4.76045V31.0074C0.0446777 31.5549 0.490564 32 1.03952 32H66.6482C66.9116 32 67.159 31.8985 67.3468 31.7145L71.411 27.7152C71.7378 27.5052 71.9554 27.1411 71.9554 26.7272V1.17656C71.9554 0.527582 71.424 0 70.7704 0H70.7696ZM70.4276 25.9584H6.55966C6.43445 25.9584 6.32908 25.8538 6.32908 25.7293V1.52701H70.4283V25.9584H70.4276Z" fill="#B18AE7"/>
<path d="M20.2623 18.544H16.7784L16.3478 16.5803H14.058L13.6473 18.544H11.2919L13.6404 9.3186H17.7244L20.2623 18.544ZM15.2323 10.754L14.3383 15.0533H16.2043L15.4346 10.754H15.2323Z" fill="#6D489C"/>
<path d="M21.4366 9.3186H24.1508L26.4475 12.9071L28.7441 9.3186H31.5232V18.544H28.5349V13.5339L26.3818 17.1812H25.7489L23.524 13.5339V18.544H21.4366V9.3186Z" fill="#6D489C"/>
<path d="M33.7542 9.3186H40.2264V11.0281H36.6777V12.9788H39.8096V14.6494H36.6777V16.665H40.2264V18.544H33.7542V9.3186Z" fill="#6D489C"/>
<path d="M42.3528 18.544V9.3186H45.5626C46.3543 9.3186 47.0651 9.41099 47.6958 9.59576C48.3264 9.78052 48.8601 10.0615 49.2976 10.4371C49.7343 10.8135 50.0695 11.2854 50.3024 11.8527C50.5353 12.42 50.6513 13.0865 50.6513 13.8523C50.6513 14.4348 50.5918 14.9563 50.4719 15.4152C50.352 15.8741 50.1825 16.2772 49.9626 16.6253C49.7427 16.9735 49.4778 17.2682 49.1671 17.5095C48.8563 17.7507 48.5112 17.9485 48.1333 18.1035C47.7546 18.2577 47.3469 18.3699 46.9101 18.4394C46.4727 18.5089 46.0153 18.544 45.5366 18.544H42.3528ZM45.2755 16.4566H45.4709C45.8099 16.4566 46.1191 16.4253 46.3971 16.3619C46.675 16.2993 46.9132 16.1741 47.1117 15.9871C47.3095 15.8 47.4614 15.5366 47.5683 15.1976C47.6752 14.8586 47.7279 14.4104 47.7279 13.8538C47.7279 13.3491 47.6798 12.9285 47.5843 12.5917C47.4889 12.255 47.3469 11.9848 47.1606 11.7824C46.9735 11.5801 46.7429 11.4366 46.4688 11.3518C46.1947 11.2671 45.8817 11.2243 45.5297 11.2243H45.2755V16.4566Z" fill="#6D489C"/>
<path d="M52.3997 9.3186H55.3224V18.544H52.3997V9.3186Z" fill="#6D489C"/>
<path d="M65.474 18.544H61.9901L61.5595 16.5803H59.2697L58.859 18.544H56.5035L58.8521 9.3186H62.9361L65.474 18.544ZM60.444 10.754L59.5499 15.0533H61.4159L60.6463 10.754H60.444Z" fill="#6D489C"/>
</svg>
