<svg width="192" height="85" viewBox="0 0 192 85" fill="none" xmlns="http://www.w3.org/2000/svg">
<path d="M190.842 0.894775H12.7896V73.3685H190.842V0.894775Z" fill="#FEFDFF"/>
<path d="M188.58 0H14.7154C13.8555 0 13.0769 0.342742 12.5077 0.896402L1.17801 10.6514C0.596588 11.1523 0.263184 11.8783 0.263184 12.6449V82.3635C0.263184 83.8176 1.45043 85 2.91212 85H177.606C178.307 85 178.966 84.7303 179.466 84.2415L190.287 73.6185C191.157 73.0608 191.737 72.0934 191.737 70.9942V3.12524C191.737 1.40139 190.322 0 188.582 0H188.58ZM187.669 68.952H17.6104C17.277 68.952 16.9964 68.6741 16.9964 68.3436V4.05612H187.671V68.952H187.669Z" fill="#B18AE7"/>
<path d="M53.9473 49.2105H44.565L43.4054 44.0682H37.2389L36.1327 49.2105H29.7894L36.1142 25.0526H47.1126L53.9473 49.2105ZM40.4013 28.8114L37.9935 40.0696H43.0188L40.9462 28.8114H40.4013Z" fill="#B18AE7"/>
<path d="M56.6316 25.0526H63.8546L69.9663 34.4495L76.078 25.0526H83.4737V49.2105H75.5212V36.0909L69.7916 45.6417H68.1072L62.1865 36.0909V49.2105H56.6316V25.0526Z" fill="#B18AE7"/>
<path d="M89.7368 25.0526H106.737V29.5291H97.4156V34.6374H105.642V39.0119H97.4156V44.2902H106.737V49.2105H89.7368V25.0526Z" fill="#B18AE7"/>
<path d="M112.105 49.2105V25.0526H120.757C122.891 25.0526 124.807 25.2945 126.507 25.7784C128.207 26.2622 129.646 26.998 130.825 27.9816C132.002 28.9673 132.905 30.2029 133.533 31.6884C134.161 33.1739 134.474 34.9193 134.474 36.9246C134.474 38.4501 134.313 39.8157 133.99 41.0173C133.667 42.2189 133.21 43.2745 132.617 44.1862C132.025 45.0979 131.31 45.8696 130.473 46.5014C129.635 47.1332 128.705 47.651 127.686 48.0569C126.666 48.4608 125.567 48.7547 124.389 48.9366C123.21 49.1185 121.977 49.2105 120.687 49.2105H112.105ZM119.983 43.7443H120.51C121.424 43.7443 122.257 43.6624 123.006 43.4964C123.756 43.3325 124.398 43.0046 124.933 42.5148C125.466 42.0249 125.875 41.3351 126.163 40.4474C126.452 39.5597 126.594 38.3861 126.594 36.9286C126.594 35.6071 126.464 34.5054 126.207 33.6237C125.949 32.742 125.567 32.0343 125.064 31.5044C124.56 30.9746 123.939 30.5987 123.2 30.3768C122.461 30.1549 121.617 30.0429 120.669 30.0429H119.983V43.7443Z" fill="#B18AE7"/>
<path d="M138.947 25.0526H147V49.2105H138.947V25.0526Z" fill="#B18AE7"/>
<path d="M173.842 49.2105H164.46L163.3 44.0682H157.134L156.027 49.2105H149.684L156.009 25.0526H167.007L173.842 49.2105ZM160.296 28.8114L157.888 40.0696H162.914L160.841 28.8114H160.296Z" fill="#B18AE7"/>
</svg>
