<svg width="36" height="25" viewBox="0 0 36 25" fill="none" xmlns="http://www.w3.org/2000/svg">
<path d="M30.8418 22.0267C31.3598 21.5645 31.8841 21.1084 32.3932 20.6355C33.1946 19.8921 33.9872 19.138 34.7841 18.3893C34.8297 18.3467 34.8735 18.3035 34.9186 18.2627C35.0988 18.0995 35.2973 17.9964 35.5326 18.1532C35.7258 18.2809 35.7574 18.5511 35.5659 18.818C35.3632 19.1016 35.1305 19.37 34.8766 19.6076C33.2632 21.1153 31.6422 22.6145 30.0212 24.1138C29.5271 24.5711 29.0849 24.4583 28.9512 23.7952C28.7561 22.8264 28.6069 21.8473 28.4681 20.8674C28.3723 20.1937 28.325 19.5145 28.2588 18.8376C28.2473 18.7149 28.2223 18.5901 28.2269 18.4682C28.2411 18.1614 28.4126 17.9733 28.6655 17.9657C28.9455 17.9562 29.0791 18.1526 29.1141 18.5048C29.2225 19.6309 29.3512 20.7573 29.478 21.883C29.4857 21.9581 29.5314 22.0286 29.5864 22.1687C29.8175 21.9321 29.8749 21.6708 29.9218 21.4305C30.1632 20.2394 30.4282 19.0515 30.5992 17.851C30.8207 16.2982 30.9026 14.729 30.7844 13.1614C30.5508 10.0836 29.3383 7.45643 26.9545 5.42937C25.3194 4.03908 23.3972 3.41578 21.2457 3.53672C21.0797 3.54664 20.9152 3.5651 20.7508 3.58967C20.6932 3.59833 20.6412 3.63501 20.5079 3.69129C20.6262 3.87087 20.7325 4.03666 20.8417 4.19933C21.9617 5.86877 22.4151 7.70644 22.1344 9.67963C21.8052 11.9855 20.5498 13.6348 18.3337 14.4614C16.7398 15.0577 15.076 14.6224 14.0091 13.4197C13.529 12.8771 13.256 12.23 13.1116 11.5353C12.6304 9.20828 13.3572 7.22179 14.8935 5.49262C15.7594 4.51843 16.848 3.84868 18.0531 3.35794C18.1858 3.3035 18.3184 3.24296 18.4465 3.17701C18.4781 3.16038 18.4946 3.1129 18.5491 3.03457C18.3324 2.88354 18.121 2.722 17.8948 2.58221C16.4618 1.7042 14.8961 1.38777 13.2375 1.51575C11.6705 1.63735 10.1863 2.08128 8.74673 2.68629C6.14137 3.77992 4.00188 5.43606 2.46527 7.81979C2.09637 8.39412 1.74238 8.973 1.62364 9.6621C1.58009 9.91147 1.45579 10.0917 1.17589 10.081C0.95026 10.0727 0.762192 9.82134 0.833117 9.51568C0.939871 9.05932 1.06847 8.59144 1.28048 8.17732C2.21178 6.34825 3.51472 4.81653 5.19218 3.6194C7.1897 2.19469 9.41361 1.26948 11.8262 0.793857C13.7904 0.405599 15.7187 0.495325 17.5466 1.38078C18.194 1.69566 18.7868 2.12924 19.375 2.5513C19.6107 2.72024 19.8034 2.80941 20.1046 2.76396C24.1717 2.14699 27.2839 3.70343 29.5884 6.99739C30.9508 8.94695 31.6534 11.1294 31.7219 13.5002C31.8025 16.2787 31.5359 19.0199 30.8033 21.7058C30.7815 21.784 30.7466 21.8582 30.7168 21.9359C30.7596 21.9692 30.8029 22.0006 30.8457 22.0339L30.8418 22.0267ZM20.1922 4.82536C20.0244 4.5943 19.9081 4.4214 19.7799 4.26101C19.455 3.85064 19.4277 3.84638 18.9462 4.00241C18.0105 4.30467 17.1613 4.77073 16.3853 5.36418C15.3227 6.17526 14.5727 7.21714 14.1591 8.48499C13.7908 9.61109 13.7431 10.7482 14.1608 11.882C14.6339 13.168 15.7424 13.8944 17.115 13.7821C17.5015 13.7506 17.8999 13.6601 18.2548 13.5119C19.7488 12.8891 20.6965 11.7601 21.0926 10.2162C21.5934 8.27586 21.1733 6.46251 20.1916 4.82721L20.1922 4.82536Z" fill="#1B191B"/>
</svg>
