<svg width="15" height="15" viewBox="0 0 15 15" fill="none" xmlns="http://www.w3.org/2000/svg">
<path d="M7.5 14C11.0899 14 14 11.0899 14 7.5C14 3.91005 11.0899 1 7.5 1C3.91005 1 1 3.91005 1 7.5C1 8.54 1.2444 9.5228 1.67795 10.3944C1.79365 10.6258 1.832 10.8904 1.76505 11.1406L1.3783 12.5875C1.34014 12.7307 1.34028 12.8814 1.37872 13.0244C1.41715 13.1675 1.49252 13.298 1.59728 13.4027C1.70203 13.5075 1.83249 13.5828 1.97556 13.6213C2.11864 13.6597 2.2693 13.6599 2.41245 13.6217L3.85935 13.2349C4.11051 13.1717 4.37612 13.2025 4.6062 13.3214C5.5051 13.769 6.49582 14.0013 7.5 14Z" stroke="#7C7C7C" stroke-width="0.9375"/>
<path d="M7.5 6.22361L7.14267 6.56907C7.18923 6.61611 7.24482 6.65349 7.30618 6.679C7.36754 6.70452 7.43343 6.71767 7.5 6.71767C7.56657 6.71767 7.63246 6.70452 7.69382 6.679C7.75518 6.65349 7.81077 6.61611 7.85733 6.56907L7.5 6.22427V6.22361ZM6.50933 9.4349C6.122 9.10922 5.73267 8.7308 5.444 8.34052C5.15 7.94166 5 7.58302 5 7.28437H4C4 7.88826 4.29 8.45391 4.63667 8.92331C4.98933 9.40128 5.44333 9.83573 5.862 10.1884L6.51 9.4349H6.50933ZM5 7.28437C5 6.55456 5.33 6.17087 5.66867 6.04495C6.014 5.91771 6.56333 5.98562 7.14267 6.57038L7.85733 5.87881C7.08667 5.10088 6.13667 4.81608 5.31867 5.11868C4.49533 5.42326 4 6.24998 4 7.28437H5ZM9.138 10.1891C9.55667 9.83705 10.0107 9.40194 10.3633 8.92463C10.71 8.45457 11 7.88892 11 7.28503H10C10 7.58368 9.85 7.94232 9.556 8.34118C9.26733 8.73212 8.878 9.10988 8.49067 9.43556L9.138 10.1891ZM11 7.28503C11 6.24998 10.5047 5.42326 9.68133 5.11868C8.86333 4.81608 7.91333 5.10022 7.14267 5.87881L7.85733 6.57104C8.43667 5.98562 8.98667 5.91771 9.33067 6.04495C9.67067 6.17021 10 6.55522 10 7.28503H11ZM5.862 10.1891C6.382 10.6262 6.79533 11 7.5 11V10.0111C7.224 10.0111 7.08867 9.9221 6.50933 9.4349L5.862 10.1891ZM8.49067 9.43556C7.91133 9.92276 7.776 10.0111 7.5 10.0111V11C8.20467 11 8.61867 10.6262 9.138 10.1891L8.49 9.43556H8.49067Z" fill="#7C7C7C"/>
</svg>
