<svg width="25" height="24" viewBox="0 0 25 24" fill="none" xmlns="http://www.w3.org/2000/svg">
<path d="M17.25 12C17.2499 12.177 17.2028 12.3508 17.1136 12.5036C17.0243 12.6565 16.8961 12.7829 16.742 12.87L11.49 15.848C11.2616 15.9776 11.0031 16.0449 10.7405 16.0432C10.4779 16.0416 10.2204 15.971 9.99362 15.8386C9.76684 15.7062 9.57881 15.5165 9.44831 15.2886C9.31782 15.0608 9.24943 14.8026 9.25 14.54V9.458C9.25013 9.19574 9.31903 8.93809 9.44981 8.71076C9.58059 8.48343 9.76869 8.29437 9.99535 8.16242C10.222 8.03048 10.4793 7.96026 10.7415 7.95878C11.0038 7.95731 11.2619 8.02462 11.49 8.154L16.742 11.13C16.8961 11.2171 17.0243 11.3435 17.1136 11.4964C17.2028 11.6492 17.2499 11.823 17.25 12ZM12.25 0C10.6741 -2.34822e-08 9.11371 0.310389 7.6578 0.913445C6.20189 1.5165 4.87902 2.40042 3.76472 3.51472C2.65042 4.62902 1.7665 5.95189 1.16345 7.4078C0.560389 8.86371 0.25 10.4241 0.25 12C0.25 13.5759 0.560389 15.1363 1.16345 16.5922C1.7665 18.0481 2.65042 19.371 3.76472 20.4853C4.87902 21.5996 6.20189 22.4835 7.6578 23.0866C9.11371 23.6896 10.6741 24 12.25 24C15.4326 24 18.4848 22.7357 20.7353 20.4853C22.9857 18.2348 24.25 15.1826 24.25 12C24.25 8.8174 22.9857 5.76516 20.7353 3.51472C18.4848 1.26428 15.4326 4.74244e-08 12.25 0ZM2.25 12C2.25 9.34784 3.30357 6.8043 5.17893 4.92893C7.0543 3.05357 9.59784 2 12.25 2C14.9022 2 17.4457 3.05357 19.3211 4.92893C21.1964 6.8043 22.25 9.34784 22.25 12C22.25 14.6522 21.1964 17.1957 19.3211 19.0711C17.4457 20.9464 14.9022 22 12.25 22C9.59784 22 7.0543 20.9464 5.17893 19.0711C3.30357 17.1957 2.25 14.6522 2.25 12Z" fill="#6D489C"/>
</svg>
