<svg width="21" height="22" viewBox="0 0 21 22" fill="none" xmlns="http://www.w3.org/2000/svg">
<mask id="mask0_675_2361" style="mask-type:luminance" maskUnits="userSpaceOnUse" x="0" y="0" width="21" height="21">
<path fill-rule="evenodd" clip-rule="evenodd" d="M0.916748 0.916626H19.582V19.5821H0.916748V0.916626Z" fill="white" stroke="white" stroke-width="1.17391"/>
</mask>
<g mask="url(#mask0_675_2361)">
<path fill-rule="evenodd" clip-rule="evenodd" d="M10.2498 2.35415C5.89608 2.35415 2.35408 5.89519 2.35408 10.2489C2.35408 14.6026 5.89608 18.1446 10.2498 18.1446C14.6025 18.1446 18.1445 14.6026 18.1445 10.2489C18.1445 5.89519 14.6025 2.35415 10.2498 2.35415ZM10.2497 19.5821C5.10346 19.5821 0.916504 15.3951 0.916504 10.2489C0.916504 5.10263 5.10346 0.916626 10.2497 0.916626C15.396 0.916626 19.582 5.10263 19.582 10.2489C19.582 15.3951 15.396 19.5821 10.2497 19.5821Z" fill="#1B191B"/>
<path d="M10.2498 1.76719C5.572 1.76719 1.76712 5.57093 1.76712 10.2489H2.94104C2.94104 6.21945 6.22015 2.94111 10.2498 2.94111V1.76719ZM1.76712 10.2489C1.76712 14.9268 5.57191 18.7316 10.2498 18.7316V17.5577C6.22025 17.5577 2.94104 14.2784 2.94104 10.2489H1.76712ZM10.2498 18.7316C14.9268 18.7316 18.7315 14.9267 18.7315 10.2489H17.5576C17.5576 14.2785 14.2783 17.5577 10.2498 17.5577V18.7316ZM18.7315 10.2489C18.7315 5.57098 14.9267 1.76719 10.2498 1.76719V2.94111C14.2784 2.94111 17.5576 6.21941 17.5576 10.2489H18.7315ZM10.2497 18.9951C5.42763 18.9951 1.50346 15.071 1.50346 10.2489H0.329547C0.329547 15.7193 4.7793 20.169 10.2497 20.169V18.9951ZM1.50346 10.2489C1.50346 5.42687 5.42755 1.50358 10.2497 1.50358V0.329669C4.77937 0.329669 0.329547 4.77838 0.329547 10.2489H1.50346ZM10.2497 1.50358C15.0718 1.50358 18.995 5.42679 18.995 10.2489H20.1689C20.1689 4.77846 15.7201 0.329669 10.2497 0.329669V1.50358ZM18.995 10.2489C18.995 15.071 15.0717 18.9951 10.2497 18.9951V20.169C15.7202 20.169 20.1689 15.7192 20.1689 10.2489H18.995Z" fill="#1B191B"/>
</g>
<mask id="mask1_675_2361" style="mask-type:luminance" maskUnits="userSpaceOnUse" x="14" y="15" width="7" height="7">
<path fill-rule="evenodd" clip-rule="evenodd" d="M15.5215 15.9691H20.3362V20.7749H15.5215V15.9691Z" fill="white" stroke="white" stroke-width="1.17391"/>
</mask>
<g mask="url(#mask1_675_2361)">
<path fill-rule="evenodd" clip-rule="evenodd" d="M19.6176 20.7749C19.4346 20.7749 19.2506 20.705 19.1097 20.565L15.7326 17.1975C15.4518 16.9167 15.4508 16.4615 15.7316 16.1807C16.0114 15.898 16.4666 15.8999 16.7484 16.1788L20.1256 19.5473C20.4063 19.8281 20.4073 20.2823 20.1265 20.5631C19.9866 20.705 19.8016 20.7749 19.6176 20.7749Z" fill="#1B191B"/>
<path d="M19.6176 20.7749C19.4346 20.7749 19.2506 20.705 19.1097 20.565L15.7326 17.1975C15.4518 16.9167 15.4508 16.4615 15.7316 16.1807C16.0114 15.898 16.4666 15.8999 16.7484 16.1788L20.1256 19.5473C20.4063 19.8281 20.4073 20.2823 20.1265 20.5631C19.9866 20.705 19.8016 20.7749 19.6176 20.7749" stroke="#1B191B" stroke-width="1.17391"/>
</g>
</svg>
