<svg width="32" height="32" viewBox="0 0 32 32" fill="none" xmlns="http://www.w3.org/2000/svg">
<rect width="32" height="32" fill="white"/>
<path d="M15.9991 12.2667C15.0398 12.2667 14.1198 12.6602 13.4415 13.3605C12.7632 14.0608 12.3821 15.0106 12.3821 16.0009C12.3821 16.9913 12.7632 17.9411 13.4415 18.6414C14.1198 19.3417 15.0398 19.7352 15.9991 19.7352C16.9583 19.7352 17.8783 19.3417 18.5566 18.6414C19.2349 17.9411 19.616 16.9913 19.616 16.0009C19.616 15.0106 19.2349 14.0608 18.5566 13.3605C17.8783 12.6602 16.9583 12.2667 15.9991 12.2667ZM14.1906 16.0009C14.1906 15.5058 14.3811 15.0309 14.7203 14.6807C15.0594 14.3306 15.5194 14.1338 15.9991 14.1338C16.4787 14.1338 16.9387 14.3306 17.2778 14.6807C17.617 15.0309 17.8075 15.5058 17.8075 16.0009C17.8075 16.4961 17.617 16.971 17.2778 17.3212C16.9387 17.6713 16.4787 17.8681 15.9991 17.8681C15.5194 17.8681 15.0594 17.6713 14.7203 17.3212C14.3811 16.971 14.1906 16.4961 14.1906 16.0009ZM20.7336 9.27562C20.4001 9.33888 20.0559 9.26294 19.7765 9.06447C19.4971 8.866 19.3054 8.5612 19.2435 8.21697L18.7733 5.57315C18.7502 5.4444 18.6906 5.32562 18.6021 5.23188C18.5135 5.13814 18.4 5.07366 18.2759 5.04663C16.7741 4.71786 15.2222 4.71786 13.7204 5.04663C13.5963 5.07366 13.4828 5.13814 13.3943 5.23188C13.3057 5.32562 13.2461 5.4444 13.2231 5.57315L12.7547 8.21697C12.7205 8.40527 12.6472 8.58368 12.5397 8.73991C12.4323 8.89614 12.2934 9.02648 12.1325 9.12196C11.9717 9.21743 11.7926 9.27576 11.6078 9.29294C11.423 9.31012 11.2368 9.28574 11.062 9.22148L8.60425 8.3178C8.485 8.2737 8.35577 8.26701 8.23284 8.29858C8.10991 8.33014 7.99878 8.39854 7.91342 8.49517C6.88336 9.66577 6.10548 11.0486 5.63114 12.5524C5.592 12.6768 5.58968 12.8103 5.62447 12.9361C5.65926 13.0618 5.72959 13.1739 5.82645 13.2582L7.81938 14.9964C7.96098 15.1198 8.0748 15.2736 8.15287 15.4471C8.23094 15.6206 8.27138 15.8096 8.27138 16.0009C8.27138 16.1923 8.23094 16.3813 8.15287 16.5548C8.0748 16.7283 7.96098 16.8821 7.81938 17.0055L5.82645 18.7437C5.72959 18.828 5.65926 18.9401 5.62447 19.0658C5.58968 19.1916 5.592 19.3251 5.63114 19.4495C6.10582 20.9535 6.88434 22.3364 7.91523 23.5067C8.00059 23.6033 8.11172 23.6718 8.23465 23.7033C8.35758 23.7349 8.48681 23.7282 8.60606 23.6841L11.0656 22.7804C11.2404 22.7155 11.4267 22.6906 11.6118 22.7075C11.7968 22.7244 11.9761 22.7826 12.1371 22.8782C12.2982 22.9737 12.4372 23.1044 12.5444 23.2609C12.6517 23.4175 12.7247 23.5963 12.7583 23.7849L13.2249 26.4287C13.2719 26.6901 13.469 26.8993 13.7222 26.9534C15.2246 27.2823 16.7771 27.2823 18.2795 26.9534C18.4032 26.9264 18.5162 26.8621 18.6044 26.7687C18.6927 26.6753 18.752 26.557 18.7751 26.4287L19.2453 23.7849C19.2795 23.5966 19.3528 23.4182 19.4602 23.262C19.5676 23.1057 19.7065 22.9754 19.8674 22.8799C20.0283 22.7845 20.2073 22.7261 20.3921 22.7089C20.5769 22.6918 20.7632 22.7161 20.938 22.7804L23.3957 23.6841C23.6398 23.7737 23.9129 23.7028 24.0865 23.5067C25.1166 22.3361 25.8945 20.9533 26.3688 19.4495C26.408 19.3251 26.4103 19.1916 26.3755 19.0658C26.3407 18.9401 26.2704 18.828 26.1735 18.7437L24.1806 17.0055C24.0387 16.8822 23.9246 16.7285 23.8464 16.555C23.7681 16.3814 23.7276 16.1924 23.7276 16.0009C23.7276 15.8095 23.7681 15.6204 23.8464 15.4469C23.9246 15.2734 24.0387 15.1196 24.1806 14.9964L26.1735 13.2582C26.2704 13.1739 26.3407 13.0618 26.3755 12.9361C26.4103 12.8103 26.408 12.6768 26.3688 12.5524C25.8936 11.0482 25.1145 9.66525 24.0829 8.49517C23.9976 8.39854 23.8864 8.33014 23.7635 8.29858C23.6406 8.26701 23.5113 8.2737 23.3921 8.3178L20.9326 9.22148C20.8672 9.24572 20.8001 9.26445 20.7318 9.27749L20.7336 9.27562ZM8.76159 10.3585L10.4561 10.9803C10.8778 11.1353 11.327 11.1939 11.7727 11.1522C12.2184 11.1104 12.6501 10.9693 13.0378 10.7385C13.4256 10.5077 13.7602 10.1928 14.0185 9.81546C14.2769 9.43815 14.4528 9.00743 14.5342 8.55305L14.8543 6.74196C15.6139 6.64404 16.3824 6.64404 17.142 6.74196L17.4639 8.55305C17.5447 9.00774 17.7203 9.43885 17.9786 9.81651C18.2368 10.1942 18.5714 10.5094 18.9593 10.7402C19.3473 10.9711 19.7791 11.1122 20.2251 11.1536C20.6711 11.1951 21.1204 11.1359 21.542 10.9803L23.2329 10.3567C23.6941 10.9803 24.0775 11.6599 24.3723 12.3806L23.0087 13.57C22.6661 13.8686 22.3907 14.2409 22.2018 14.6608C22.0129 15.0806 21.9151 15.538 21.9151 16.0009C21.9151 16.4639 22.0129 16.9213 22.2018 17.3411C22.3907 17.761 22.6661 18.1333 23.0087 18.4319L24.3741 19.6213C24.0782 20.3427 23.6954 21.0227 23.2347 21.6452L21.5402 21.0216C21.1186 20.8666 20.6694 20.808 20.2236 20.8497C19.7779 20.8915 19.3463 21.0326 18.9585 21.2634C18.5708 21.4942 18.2362 21.8091 17.9778 22.1864C17.7195 22.5637 17.5435 22.9945 17.4621 23.4488L17.1402 25.2599C16.3806 25.358 15.6121 25.358 14.8525 25.2599L14.5324 23.4488C14.4516 22.9942 14.276 22.563 14.0178 22.1854C13.7596 21.8077 13.4249 21.4925 13.037 21.2616C12.6491 21.0308 12.2172 20.8897 11.7712 20.8483C11.3253 20.8068 10.8759 20.866 10.4543 21.0216L8.76521 21.6452C8.30447 21.0227 7.92167 20.3427 7.62587 19.6213L8.98946 18.4301C9.33177 18.1314 9.60686 17.7592 9.79556 17.3395C9.98425 16.9199 10.082 16.4627 10.082 16C10.082 15.5373 9.98425 15.0802 9.79556 14.6605C9.60686 14.2408 9.33177 13.8686 8.98946 13.57L7.62406 12.3806C7.9211 11.6598 8.30382 10.98 8.7634 10.3567L8.76159 10.3585Z" fill="#B18AE7"/>
</svg>
