<svg width="32" height="32" viewBox="0 0 32 32" fill="none" xmlns="http://www.w3.org/2000/svg">
<path d="M22.6607 7.76C21.7452 6.7195 21.2407 5.38324 21.2411 4H17.1027V20.5333C17.0708 21.428 16.6913 22.2755 16.0443 22.8973C15.3973 23.519 14.5332 23.8665 13.6339 23.8667C11.7321 23.8667 10.1518 22.32 10.1518 20.4C10.1518 18.1067 12.375 16.3867 14.6652 17.0933V12.88C10.0446 12.2667 6 15.84 6 20.4C6 24.84 9.69643 28 13.6205 28C17.8259 28 21.2411 24.6 21.2411 20.4V12.0133C22.9192 13.2131 24.934 13.8569 27 13.8533V9.73333C27 9.73333 24.4821 9.85333 22.6607 7.76Z" fill="#6D489C"/>
</svg>
