<svg width="32" height="32" viewBox="0 0 32 32" fill="none" xmlns="http://www.w3.org/2000/svg">
<path d="M30 15.9138C30 15.8461 30 15.7692 29.9969 15.6799C29.9938 15.4306 29.9875 15.1505 29.9813 14.852C29.9563 13.9932 29.9125 13.1376 29.8438 12.3312C29.75 11.2201 29.6125 10.2936 29.425 9.59803C29.2271 8.87211 28.8393 8.21006 28.3002 7.67804C27.7612 7.14603 27.0898 6.76268 26.3531 6.56633C25.4688 6.33241 23.7375 6.18775 21.3 6.09849C20.1406 6.0554 18.9 6.0277 17.6594 6.01231C17.225 6.00616 16.8219 6.00308 16.4594 6H15.5406C15.1781 6.00308 14.775 6.00616 14.3406 6.01231C13.1 6.0277 11.8594 6.0554 10.7 6.09849C8.2625 6.19083 6.52812 6.33549 5.64687 6.56633C4.91 6.7622 4.23834 7.14538 3.6992 7.67747C3.16006 8.20957 2.77238 8.87187 2.575 9.59803C2.38438 10.2936 2.25 11.2201 2.15625 12.3312C2.0875 13.1376 2.04375 13.9932 2.01875 14.852C2.00937 15.1505 2.00625 15.4306 2.00312 15.6799C2.00312 15.7692 2 15.8461 2 15.9138V16.0862C2 16.1539 2 16.2308 2.00312 16.3201C2.00625 16.5694 2.0125 16.8495 2.01875 17.148C2.04375 18.0068 2.0875 18.8624 2.15625 19.6688C2.25 20.7799 2.3875 21.7064 2.575 22.402C2.975 23.8763 4.15 25.0397 5.64687 25.4337C6.52812 25.6676 8.2625 25.8122 10.7 25.9015C11.8594 25.9446 13.1 25.9723 14.3406 25.9877C14.775 25.9938 15.1781 25.9969 15.5406 26H16.4594C16.8219 25.9969 17.225 25.9938 17.6594 25.9877C18.9 25.9723 20.1406 25.9446 21.3 25.9015C23.7375 25.8092 25.4719 25.6645 26.3531 25.4337C27.85 25.0397 29.025 23.8793 29.425 22.402C29.6156 21.7064 29.75 20.7799 29.8438 19.6688C29.9125 18.8624 29.9563 18.0068 29.9813 17.148C29.9906 16.8495 29.9938 16.5694 29.9969 16.3201C29.9969 16.2308 30 16.1539 30 16.0862V15.9138ZM27.75 16.0739C27.75 16.1385 27.75 16.2093 27.7469 16.2924C27.7438 16.5325 27.7375 16.7972 27.7313 17.0834C27.7094 17.9021 27.6656 18.7208 27.6 19.4811C27.5156 20.4721 27.3969 21.2847 27.25 21.8295C27.0562 22.5405 26.4875 23.1037 25.7687 23.2915C25.1125 23.4638 23.4594 23.6023 21.2125 23.6854C20.075 23.7285 18.85 23.7562 17.6281 23.7716C17.2 23.7778 16.8031 23.7809 16.4469 23.7809H15.5531L14.3719 23.7716C13.15 23.7562 11.9281 23.7285 10.7875 23.6854C8.54063 23.5993 6.88437 23.4638 6.23125 23.2915C5.5125 23.1006 4.94375 22.5405 4.75 21.8295C4.60313 21.2847 4.48438 20.4721 4.4 19.4811C4.33438 18.7208 4.29375 17.9021 4.26875 17.0834C4.25938 16.7972 4.25625 16.5294 4.25313 16.2924C4.25313 16.2093 4.25 16.1354 4.25 16.0739V15.9261C4.25 15.8615 4.25 15.7907 4.25313 15.7076C4.25625 15.4675 4.2625 15.2028 4.26875 14.9166C4.29063 14.0979 4.33438 13.2792 4.4 12.5189C4.48438 11.5279 4.60313 10.7153 4.75 10.1705C4.94375 9.45953 5.5125 8.89628 6.23125 8.70853C6.8875 8.53616 8.54063 8.39766 10.7875 8.31456C11.925 8.27147 13.15 8.24377 14.3719 8.22838C14.8 8.22222 15.1969 8.21914 15.5531 8.21914H16.4469L17.6281 8.22838C18.85 8.24377 20.0719 8.27147 21.2125 8.31456C23.4594 8.40074 25.1156 8.53616 25.7687 8.70853C26.4875 8.89935 27.0562 9.45953 27.25 10.1705C27.3969 10.7153 27.5156 11.5279 27.6 12.5189C27.6656 13.2792 27.7063 14.0979 27.7313 14.9166C27.7406 15.2028 27.7438 15.4706 27.7469 15.7076C27.7469 15.7907 27.75 15.8646 27.75 15.9261V16.0739ZM13.2188 20.1243L20.4688 15.9692L13.2188 11.8757V20.1243Z" fill="#6D489C"/>
</svg>
